Genre:Adventure | Fantasy
 Language:English
 IMDb:  http://www.imdb.com/title/tt0903624/
 Source:1080p.BluRay.x264-SPARKS Thanks
 Encoder:Tony
 
Format : AVI
 Format/Info : Audio Video Interleave
 Format profile : OpenDML
 File size : 2.19 GiB
 Duration : 2h 49mn
 Overall bit rate : 1 847 Kbps
 
Video
 ID : 0
 Format : MPEG-4 Visual
 Format profile : Advanced Simple@L5
 Format settings, BVOP : 1
 Format settings, QPel : No
 Format settings, GMC : No warppoints
 Format settings, Matrix : Default (H.263)
 Codec ID : XVID
 Codec ID/Hint : XviD
 Duration : 2h 49mn
 Bit rate : 1 451 Kbps
 Width : 624 pixels
 Height : 264 pixels
 Display aspect ratio : 2.35:1
 Frame rate : 23.976 fps
 Color space : YUV
 Chroma subsampling : 4:2:0
 Bit depth : 8 bits
 Scan type : Progressive
 Compression mode : Lossy
 Bits/(Pixel*Frame) : 0.367
 Stream size : 1.72 GiB (79%)
 Writing library : XviD 1.2.1 (UTC 2008-12-04)
 
Audio
 ID : 1
 Format : AC-3
 Format/Info : Audio Coding 3
 Mode extension : CM (complete main)
 Codec ID : 2000
 Duration : 2h 49mn
 Bit rate mode : Constant
 Bit rate : 384 Kbps
 Channel(s) : 6 channels
 Channel positions : Front: L C R, Side: L R, LFE
 Sampling rate : 48.0 KHz
 Bit depth : 16 bits
 Compression mode : Lossy
 Stream size : 466 MiB (21%)
 Alignment : Aligned on interleaves
 Interleave, duration : 42 ms (1.00 video frame)
 Interleave, preload duration : 512 ms
 

Plot:
 A younger and more reluctant Hobbit, Bilbo Baggins, sets out on a "unexpected journey" to the Lonely Mountain with a spirited group of Dwarves to reclaim a their stolen mountain home from a dragon named Smaug.
  
http://lookpic.com/O/i2/539/xwXgP4yG.png 
http://lookpic.com/O/i2/500/6mh8YLc7.png 
http://lookpic.com/O/i2/1250/St90LynG.png 
http://lookpic.com/O/i2/1061/zYYBP23S.png